<?xml version="1.0" standalone="no"?>
<!DOCTYPE svg PUBLIC "-//W3C//DTD SVG 20010904//EN"
 "http://www.w3.org/TR/2001/REC-SVG-20010904/DTD/svg10.dtd">
<svg version="1.0" xmlns="http://www.w3.org/2000/svg"
 width="905.000000pt" height="1280.000000pt" viewBox="0 0 905.000000 1280.000000"
 preserveAspectRatio="xMidYMid meet">
<metadata>
Created by potrace 1.15, written by Peter Selinger 2001-2017
</metadata>
<g transform="translate(0.000000,1280.000000) scale(0.100000,-0.100000)"
fill="#000000" stroke="none">
<path d="M5766 11709 c-9 -13 -16 -31 -16 -39 0 -35 -31 -118 -61 -163 -41
-62 -73 -77 -178 -84 -75 -5 -92 -3 -117 13 -45 30 -62 55 -69 108 -7 58 -25
105 -49 129 -22 22 -122 23 -232 2 -222 -40 -407 -43 -669 -10 -215 28 -328
36 -442 33 -61 -2 -110 -6 -110 -9 1 -4 -20 -22 -48 -40 -74 -51 -100 -108
-97 -217 3 -84 2 -85 -16 -68 -15 13 -40 17 -113 18 -52 1 -100 -1 -106 -5 -7
-4 -16 0 -21 8 -6 11 -34 20 -86 27 -69 9 -79 8 -90 -7 -12 -16 -13 -16 -19
-1 -4 10 -18 16 -39 16 -37 1 -166 24 -173 32 -3 3 2 19 11 37 11 22 13 35 6
44 -6 7 -10 27 -10 44 2 72 -95 138 -182 123 -148 -25 -188 -30 -317 -40 -78
-5 -168 -16 -200 -24 -38 -10 -89 -13 -148 -10 -134 7 -328 5 -530 -6 -125 -7
-209 -7 -275 1 -52 5 -119 12 -149 14 -30 2 -72 6 -95 9 -56 8 -560 46 -616
46 -34 0 -48 -5 -55 -19 -6 -10 -20 -36 -32 -57 -29 -54 -39 -177 -18 -227 14
-34 19 -37 56 -37 45 0 45 -15 -1 -25 -16 -4 -32 -10 -35 -14 -2 -5 28 -44 69
-87 67 -73 75 -78 109 -76 40 3 43 -2 38 -74 -2 -25 2 -33 21 -38 l23 -7 -27
-10 c-18 -7 -29 -20 -33 -40 -4 -19 -16 -34 -30 -39 -27 -10 -42 -47 -26 -63
18 -18 13 -24 -32 -35 -55 -14 -77 -39 -84 -94 -3 -24 -12 -50 -20 -60 -16
-18 -14 -84 2 -81 6 1 11 -34 12 -85 2 -69 6 -90 20 -102 10 -8 18 -19 19 -25
1 -21 26 -69 42 -82 16 -12 15 -13 -5 -19 -27 -8 -29 -19 -6 -33 14 -8 15 -12
4 -25 -8 -10 -11 -26 -7 -42 6 -21 1 -33 -20 -56 -21 -21 -30 -42 -35 -86 -6
-54 9 -330 31 -582 5 -63 14 -241 20 -395 6 -154 13 -296 15 -315 2 -19 7 -69
10 -110 13 -189 25 -374 31 -472 5 -96 8 -110 30 -131 15 -16 40 -26 67 -29
35 -4 53 -14 88 -50 l45 -45 -104 5 c-57 3 -113 0 -125 -5 -111 -49 -132 -63
-149 -105 -25 -62 -41 -230 -26 -263 9 -21 9 -31 0 -46 -16 -25 -15 -45 4 -74
14 -21 16 -70 17 -337 1 -191 -3 -358 -10 -428 -7 -63 -15 -258 -19 -434 -3
-180 -10 -330 -16 -345 -5 -14 -12 -46 -14 -69 -3 -40 0 -47 36 -81 36 -33 40
-41 34 -71 -6 -27 -3 -36 17 -51 20 -15 21 -19 6 -19 -10 0 -22 -11 -27 -25
-5 -13 -23 -31 -40 -40 -27 -14 -30 -20 -25 -48 3 -18 7 -49 10 -70 5 -43 12
-57 27 -57 6 0 26 -14 45 -31 33 -29 40 -30 102 -27 l66 3 3 -31 c4 -38 -21
-102 -43 -110 -23 -9 -18 -31 10 -38 35 -9 31 -18 -18 -42 -31 -15 -43 -28
-47 -48 -4 -21 -14 -31 -42 -41 -52 -18 -81 -38 -97 -68 -12 -23 -11 -49 8
-199 76 -589 82 -710 55 -983 -9 -88 -17 -243 -18 -345 -1 -173 0 -188 22
-235 31 -67 56 -91 114 -111 58 -19 57 -30 -2 -105 -28 -35 -39 -61 -44 -100
-9 -68 -34 -115 -85 -161 -23 -20 -41 -42 -41 -48 0 -6 11 -39 24 -73 32 -81
44 -128 52 -207 6 -60 -8 -228 -22 -264 -4 -10 0 -18 10 -21 9 -3 23 -7 32
-10 13 -4 10 -12 -18 -43 -33 -36 -35 -44 -41 -128 -4 -49 -14 -114 -24 -144
-9 -32 -19 -114 -24 -200 -4 -80 -10 -165 -14 -190 -9 -59 14 -141 43 -155 12
-5 23 -22 27 -43 8 -42 25 -72 42 -72 7 0 29 -15 49 -32 46 -41 50 -41 404 -5
374 39 786 67 986 67 212 0 671 -25 823 -46 137 -18 148 -15 192 63 28 49 33
53 67 53 68 0 87 -1 142 -3 54 -2 55 -2 58 28 5 43 14 48 58 31 21 -8 63 -22
93 -31 l54 -16 23 28 c21 27 24 27 56 15 18 -8 59 -22 91 -33 73 -24 285 -124
310 -147 15 -13 41 -17 120 -19 56 -1 118 -3 137 -3 19 -1 71 -1 115 0 47 0
102 -6 135 -16 102 -30 107 -29 148 7 21 19 47 39 57 45 17 9 18 16 8 75 -11
63 -26 94 -93 186 -41 57 -39 65 13 57 68 -11 104 -30 130 -71 25 -40 47 -114
47 -157 0 -26 3 -28 50 -30 21 -1 26 -7 30 -41 l5 -40 55 2 c30 0 81 4 112 8
39 5 63 4 72 -4 10 -8 31 -8 85 4 40 8 89 15 109 15 45 0 149 -22 215 -45 73
-26 80 -19 76 73 l-4 77 38 3 c20 2 37 7 37 13 0 5 4 9 10 9 5 0 14 -19 21
-42 33 -123 43 -132 135 -118 38 5 193 12 344 15 151 3 343 9 425 13 193 10
778 5 965 -8 80 -6 197 -17 260 -25 373 -50 425 -53 484 -26 27 11 46 26 44
33 -3 7 -26 18 -52 24 -85 22 -77 34 26 40 40 2 76 4 81 4 4 0 7 8 7 17 0 9 7
24 15 33 9 10 17 42 19 77 3 33 11 81 20 107 9 26 16 55 16 66 0 29 -37 48
-120 61 -41 6 -82 14 -90 17 -16 5 79 23 140 25 19 1 38 6 41 11 4 5 -2 35
-13 67 -26 78 -81 129 -139 129 l-41 0 6 34 c5 28 3 34 -14 39 -29 8 -25 20
16 42 43 23 60 50 44 71 -10 11 -8 17 9 31 14 12 22 30 23 56 1 20 6 37 12 37
6 0 44 -25 84 -56 42 -31 80 -53 88 -50 19 7 19 113 -1 207 -14 68 -14 78 5
165 11 52 20 100 20 108 0 13 -137 86 -189 101 -39 12 -9 25 68 32 86 7 97 18
111 114 6 35 20 105 32 155 l21 92 -21 53 c-11 30 -28 89 -36 133 -13 61 -24
88 -49 117 -17 21 -45 54 -60 73 -25 31 -36 36 -88 42 -32 4 -59 11 -59 16 0
6 23 7 58 4 65 -8 112 10 145 55 17 24 19 48 21 285 2 239 4 268 29 384 40
182 67 356 67 429 0 73 -19 154 -56 237 -19 42 -28 83 -32 143 -5 83 -5 83
-38 97 -29 12 -39 12 -76 -1 -58 -20 -63 -19 -44 10 19 29 14 45 -16 45 -61 0
-155 46 -135 66 2 2 34 -9 73 -25 91 -38 143 -46 206 -30 110 26 157 78 165
182 2 34 -3 172 -12 307 -10 135 -19 272 -20 305 -2 33 -6 83 -9 110 -14 115
-18 440 -6 610 6 99 12 187 12 195 0 8 4 58 9 110 5 52 11 140 13 195 5 112
-2 133 -53 155 -26 10 -34 22 -47 66 -8 30 -20 54 -25 54 -19 0 -8 22 27 53
20 18 45 35 55 39 28 11 25 77 -6 142 -36 76 -48 83 -142 91 l-82 8 -16 53
c-19 66 -12 102 22 110 34 9 180 -2 221 -17 48 -17 63 -7 51 33 -5 18 -9 58
-9 88 -1 56 -12 81 -41 92 -15 6 -16 20 -12 111 9 159 -19 282 -75 334 -24 22
-27 31 -25 81 2 32 10 84 19 117 8 33 24 123 35 200 11 78 33 181 50 234 17
51 31 119 32 149 2 52 0 57 -26 70 -15 7 -32 25 -38 39 -13 35 -10 236 6 388
8 72 16 162 19 200 9 130 27 320 32 334 8 24 16 270 10 296 -5 21 -11 24 -35
19 -27 -6 -28 -4 -34 37 -3 24 -1 51 4 60 5 10 9 29 9 43 0 14 4 27 9 30 15 9
52 125 54 168 2 37 -1 44 -26 56 -21 10 -27 18 -21 30 3 10 13 51 21 92 37
197 -33 370 -175 431 -52 23 -218 40 -367 39 -140 -1 -395 9 -448 17 -27 5
-141 4 -255 -1 -147 -6 -233 -5 -301 3 -53 6 -130 14 -171 16 -136 7 -209 14
-272 26 -61 11 -79 13 -198 23 -30 2 -138 16 -240 31 -295 42 -294 42 -314 14z"/>
</g>
</svg>
