<?xml version="1.0" encoding="UTF-8" standalone="no"?>
<svg
   version="1.0"
   width="1010.6839pt"
   height="495.49658pt"
   viewBox="0 0 1010.6839 495.49658"
   
   id="svg1"
   preserveAspectRatio="none"
   xmlns="http://www.w3.org/2000/svg"
   xmlns:svg="http://www.w3.org/2000/svg">
  <defs
     id="defs1" />
  <metadata
     id="metadata1">
Created by potrace 1.15, written by Peter Selinger 2001-2017
</metadata>
  <g
     transform="matrix(0.1,0,0,-0.1,-135.45155,673.49658)"
     fill="#000000"
     stroke="none"
     id="g1">
    <path
       d="m 6290,6730 c -36,-19 -118,-26 -145,-12 -23,12 -28,12 -39,-3 -11,-16 -52,-24 -171,-32 -177,-12 -187,-13 -310,-49 -27,-8 -75,-14 -105,-14 -30,0 -68,-1 -85,-1 -33,-2 -189,8 -277,17 -31,3 -82,0 -115,-7 -32,-6 -62,-11 -68,-11 -5,1 -59,4 -120,6 -109,4 -137,9 -245,42 -61,18 -83,20 -185,9 -93,-9 -95,-9 -210,10 -66,11 -105,14 -115,7 -9,-5 -30,-13 -48,-17 -18,-3 -32,-11 -32,-17 0,-10 -40,-8 -152,8 -34,5 -48,3 -48,-5 0,-8 -18,-12 -52,-11 -29,1 -81,-4 -116,-11 -44,-9 -68,-10 -80,-3 -9,6 -35,8 -57,6 -22,-2 -49,-4 -60,-3 -75,2 -136,9 -176,21 -29,8 -53,10 -65,5 -10,-5 -37,-10 -59,-11 -22,0 -51,-5 -65,-9 -51,-16 -84,-13 -101,9 -11,14 -30,23 -55,24 -20,2 -42,6 -48,9 -9,6 -51,8 -58,3 -2,-1 -55,-3 -118,-5 -63,-2 -142,-7 -175,-10 -110,-11 -120,-11 -143,-3 -13,5 -31,4 -42,-2 -12,-6 -21,-7 -25,0 -3,5 -12,7 -20,3 -9,-3 -22,0 -29,6 -15,12 -61,6 -83,-11 -7,-5 -16,-7 -20,-5 -5,3 -29,-5 -53,-17 -77,-39 -97,-40 -114,-9 -27,48 -51,70 -84,75 -23,3 -32,1 -32,-9 0,-8 -5,-11 -10,-8 -6,3 -10,1 -10,-6 0,-15 -133,-7 -153,10 -11,8 -22,6 -48,-12 -30,-20 -40,-34 -70,-98 -4,-9 -3,-22 2,-30 13,-21 11,-46 -5,-62 -11,-11 -12,-17 -3,-26 8,-8 8,-11 -1,-11 -6,0 -9,-7 -6,-15 3,-8 -1,-28 -9,-45 -9,-18 -12,-32 -6,-36 6,-4 6,-10 0,-18 -6,-7 -8,-22 -4,-34 3,-12 1,-22 -3,-22 -14,0 -11,-55 4,-72 14,-18 6,-98 -10,-98 -5,0 -6,-5 -2,-11 3,-6 1,-14 -5,-18 -8,-6 -7,-19 4,-50 11,-34 13,-56 6,-100 -8,-49 -7,-60 10,-83 12,-17 15,-29 9,-33 -6,-4 -8,-21 -4,-41 4,-21 2,-40 -6,-49 -9,-11 -9,-19 -2,-28 8,-9 7,-20 -2,-39 -8,-15 -11,-30 -8,-33 4,-4 8,-37 9,-73 0,-37 5,-78 11,-92 6,-16 6,-35 0,-53 -6,-15 -7,-34 -4,-42 3,-8 -3,-23 -14,-33 -26,-24 -19,-100 12,-144 15,-20 19,-32 12,-35 -7,-2 -10,-12 -7,-22 3,-10 0,-22 -5,-25 -7,-4 -7,-18 -1,-42 7,-23 7,-51 0,-82 -5,-26 -7,-48 -3,-50 7,-2 8,-214 2,-237 -2,-5 2,-23 9,-39 6,-16 8,-38 4,-50 -10,-30 -10,-49 1,-63 4,-7 5,-13 1,-13 -4,0 -2,-7 5,-15 7,-8 9,-15 5,-15 -4,0 -3,-6 3,-13 9,-10 8,-19 -3,-34 -8,-11 -11,-23 -8,-27 3,-3 -1,-6 -10,-6 -24,0 -30,-35 -13,-72 20,-43 36,-149 25,-169 -4,-9 -14,-21 -22,-27 -10,-9 -11,-28 -5,-93 8,-72 7,-82 -9,-94 -17,-13 -17,-14 0,-32 19,-22 22,-49 7,-58 -7,-4 -7,-13 0,-26 6,-10 7,-19 3,-19 -4,0 -2,-5 4,-11 6,-6 9,-17 6,-24 -2,-7 5,-16 16,-20 38,-12 13,-65 -31,-65 -40,0 -52,-22 -34,-59 9,-16 16,-36 16,-43 0,-7 16,-24 35,-37 39,-26 39,-28 2,-114 -16,-37 -30,-51 -63,-67 -53,-26 -99,-91 -84,-119 5,-11 13,-21 17,-23 5,-2 21,-18 37,-35 24,-27 27,-35 17,-47 -11,-13 -8,-16 16,-23 15,-4 33,-6 38,-5 6,1 20,-7 33,-16 20,-15 22,-22 13,-45 -6,-15 -8,-33 -5,-41 3,-7 -2,-16 -11,-20 -9,-3 -14,-10 -11,-15 9,-14 -43,-51 -73,-51 -17,0 -22,-3 -13,-9 10,-6 10,-10 -3,-21 -19,-16 -19,-30 0,-30 10,0 15,-11 17,-35 0,-19 1,-40 2,-46 1,-13 -89,-61 -119,-63 -5,-1 -11,-21 -13,-46 -2,-24 -8,-51 -14,-58 -9,-10 -2,-12 38,-11 47,2 91,-5 102,-15 2,-3 -1,-19 -8,-36 -10,-24 -10,-33 0,-45 10,-12 9,-16 -5,-21 -9,-4 -21,-18 -26,-31 -8,-22 -13,-24 -49,-18 -46,8 -50,0 -15,-34 25,-23 33,-51 16,-51 -14,0 -20,-38 -7,-54 7,-10 34,-18 71,-21 59,-6 105,-26 105,-45 0,-6 -3,-10 -7,-10 -5,0 -8,-35 -9,-78 0,-54 -5,-87 -18,-111 -23,-43 -8,-75 40,-91 50,-17 66,-44 68,-120 2,-59 20,-80 69,-80 32,0 48,6 67,27 14,14 25,31 25,37 0,6 12,10 25,9 49,-4 69,6 78,40 6,21 5,37 -2,46 -9,11 -7,13 11,7 16,-5 23,-2 27,12 4,12 23,24 52,32 24,7 47,17 50,22 3,4 9,6 14,3 5,-3 36,0 68,6 45,10 66,10 92,0 30,-10 38,-9 62,9 39,29 178,71 230,69 25,-1 50,1 56,5 6,3 13,2 17,-4 9,-15 34,-12 52,6 9,9 22,12 32,8 9,-4 23,-6 31,-6 58,6 69,8 76,14 4,4 18,5 31,2 13,-4 29,-2 36,4 21,16 68,23 82,12 18,-15 84,-19 115,-8 41,15 178,12 214,-5 81,-39 159,-45 178,-14 12,19 214,10 245,-10 18,-12 51,-16 131,-17 59,-1 113,-5 119,-9 15,-10 83,2 83,14 0,5 14,9 30,9 17,0 39,5 49,12 15,9 28,9 59,-1 23,-8 54,-11 74,-7 18,3 52,6 75,6 23,-1 56,6 72,15 17,8 47,15 68,16 21,1 49,4 62,8 13,3 65,3 115,-2 71,-7 96,-14 114,-31 20,-18 37,-21 115,-22 51,-1 92,-3 92,-4 0,-2 52,-4 115,-6 73,-1 131,-8 159,-18 24,-9 53,-16 65,-16 12,0 26,-4 32,-9 5,-5 53,-14 106,-19 54,-5 105,-15 113,-22 9,-7 41,-14 72,-16 62,-2 137,-21 169,-41 17,-11 24,-10 43,3 29,21 132,23 183,4 29,-11 43,-11 63,-2 27,13 92,7 112,-10 7,-6 41,-12 75,-14 111,-5 162,-12 191,-23 16,-6 34,-8 40,-4 6,4 54,7 106,8 53,1 125,7 160,14 45,8 67,9 75,1 12,-12 46,-13 46,-1 0,11 62,33 82,30 7,-1 24,1 38,4 34,9 155,19 208,17 24,0 49,3 55,8 34,28 149,49 297,54 64,2 285,-10 301,-17 9,-3 43,1 75,9 76,19 304,14 384,-9 112,-32 133,-35 213,-29 106,9 146,8 237,-6 102,-15 101,-15 166,16 58,27 134,34 159,15 16,-14 66,-10 72,5 4,11 17,13 54,8 32,-4 54,-2 63,5 8,6 18,11 22,10 5,-1 17,1 27,6 9,4 32,4 50,1 17,-4 50,-6 72,-5 22,0 51,1 65,0 14,0 45,-1 70,-1 25,0 67,-7 94,-16 38,-13 54,-14 67,-5 10,6 36,10 56,10 21,-1 51,4 66,10 43,17 85,14 96,-8 17,-30 116,-40 276,-26 39,3 99,8 135,11 118,11 214,12 256,3 25,-5 54,-4 75,2 19,5 42,12 52,14 10,2 33,13 50,23 65,39 80,37 115,-17 24,-37 39,-50 62,-53 20,-3 30,0 30,9 0,7 6,13 14,13 8,0 16,4 18,9 2,4 32,4 68,-1 36,-5 75,-10 87,-10 27,0 71,47 79,84 6,27 7,27 98,30 75,3 90,6 87,18 -22,80 -31,144 -21,154 13,13 13,43 -1,48 -16,5 -33,118 -45,303 -3,39 -12,84 -20,102 -7,17 -14,38 -14,46 0,8 -7,30 -15,50 -8,19 -15,62 -15,94 0,32 -1,72 -1,88 -1,17 2,86 6,155 10,157 9,212 -4,253 -14,46 -5,281 14,347 33,116 36,135 29,215 -11,119 -4,258 16,309 8,21 5,30 -38,112 -19,36 -20,48 -11,95 17,92 17,110 1,116 -10,5 -13,16 -8,45 4,24 0,57 -10,88 -10,30 -14,63 -10,82 13,71 13,83 4,110 -6,17 -7,38 -1,56 5,15 7,38 3,52 -4,15 0,44 11,73 19,52 19,68 1,89 -9,11 -7,23 9,52 21,39 18,76 -6,76 -7,0 -16,14 -20,31 -5,24 -2,36 14,53 13,14 21,35 21,59 0,20 5,39 10,42 6,4 8,10 5,15 -3,4 -8,50 -11,102 -3,51 -7,108 -8,126 -3,27 1,33 20,38 19,5 24,13 24,40 0,46 0,47 12,62 8,9 1,12 -31,12 h -41 l 2,78 c 3,73 4,77 26,74 27,-4 27,-1 3,39 -17,28 -18,35 -6,52 16,23 4,57 -21,57 -8,0 -17,8 -21,18 -3,9 -15,29 -25,44 -21,30 -24,78 -5,78 20,1 75,53 79,75 1,11 8,23 13,27 6,4 2,8 -7,8 -10,0 -18,7 -18,15 0,8 -4,15 -10,15 -6,0 -8,25 -6,60 l 3,60 h -114 -114 l 7,35 c 4,23 2,35 -5,35 -6,0 -11,7 -11,15 0,11 -11,15 -42,15 -44,-1 -78,-20 -90,-52 -6,-13 -15,-16 -43,-11 -31,5 -37,3 -42,-15 -5,-19 -14,-22 -82,-24 -70,-3 -76,-5 -79,-25 -2,-15 -10,-23 -22,-23 -10,0 -21,-4 -25,-10 -3,-5 -18,-9 -33,-8 -15,0 -44,-3 -64,-7 -20,-4 -50,-3 -66,3 -28,10 -59,1 -73,-20 -3,-5 -21,-13 -40,-18 -122,-32 -148,-37 -160,-30 -7,5 -20,5 -29,0 -9,-5 -23,-4 -33,1 -12,7 -24,5 -42,-7 -20,-13 -28,-14 -40,-4 -8,7 -23,9 -32,5 -10,-4 -36,-9 -58,-11 -22,-3 -57,-10 -79,-15 -28,-8 -46,-7 -68,2 -19,7 -47,9 -81,4 -86,-12 -181,-8 -213,8 -16,8 -52,20 -81,27 -46,12 -54,12 -80,-5 -21,-14 -43,-18 -93,-16 -100,4 -113,6 -138,20 -18,10 -209,32 -272,31 -43,-1 -50,-2 -50,-11 0,-5 -11,-9 -25,-9 -14,0 -34,-5 -44,-12 -15,-9 -28,-9 -58,1 -39,13 -115,7 -258,-19 -115,-21 -257,-10 -292,23 -19,17 -38,21 -110,23 -236,6 -364,23 -438,54 -11,5 -59,14 -107,19 -49,6 -98,16 -110,23 -13,7 -40,13 -61,14 -64,4 -151,25 -169,41 -15,14 -20,14 -40,2 -32,-20 -126,-23 -168,-6 -19,8 -42,13 -50,11 -71,-15 -90,-15 -120,0 -18,8 -59,16 -91,17 -33,1 -62,6 -65,11 -3,4 -15,6 -27,3 -12,-3 -44,1 -71,9 -27,8 -54,12 -59,9 -11,-7 -139,-7 -165,1 -9,2 -24,1 -32,-4 z"
       id="path1" />
  </g>
</svg>
