<?xml version="1.0" standalone="no"?>
<!DOCTYPE svg PUBLIC "-//W3C//DTD SVG 20010904//EN"
 "http://www.w3.org/TR/2001/REC-SVG-20010904/DTD/svg10.dtd">
<svg version="1.0" xmlns="http://www.w3.org/2000/svg"
 width="1054.000000pt" height="1280.000000pt" viewBox="0 0 1054.000000 1280.000000"
 preserveAspectRatio="xMidYMid meet">
<metadata>
Created by potrace 1.15, written by Peter Selinger 2001-2017
</metadata>
<g transform="translate(0.000000,1280.000000) scale(0.100000,-0.100000)"
fill="#000000" stroke="none">
<path d="M6824 12765 c-22 -33 -46 -39 -87 -19 -33 16 -40 16 -105 0 -53 -13
-76 -14 -97 -6 -24 9 -32 7 -51 -11 -23 -21 -52 -22 -116 -3 -13 4 -18 0 -18
-16 0 -34 -18 -59 -60 -80 -22 -11 -44 -20 -49 -20 -5 0 -36 27 -69 60 -54 56
-62 60 -104 60 -33 0 -50 -6 -64 -21 -32 -36 -59 -41 -116 -19 -28 10 -61 29
-74 41 -33 31 -64 20 -93 -36 -14 -26 -36 -55 -50 -67 l-26 -20 -3 41 c-3 36
-6 41 -28 41 -18 0 -24 5 -24 21 0 19 -4 21 -37 15 -21 -4 -71 -9 -111 -13
-65 -5 -77 -3 -103 16 -22 17 -43 21 -99 21 l-70 0 0 -29 c0 -66 -58 -80 -110
-26 -28 29 -41 35 -76 35 -26 0 -47 -6 -55 -16 -18 -21 -67 -13 -116 20 -45
31 -64 32 -87 7 -28 -31 -69 -35 -122 -12 -25 12 -61 21 -79 21 -27 0 -37 -6
-54 -35 -11 -19 -27 -35 -35 -35 -7 0 -36 -7 -64 -16 -42 -14 -51 -21 -54 -42
-4 -32 -46 -57 -110 -67 l-48 -6 0 38 c0 61 -10 84 -31 78 -15 -5 -19 -1 -19
19 0 14 -2 26 -5 26 -26 0 -117 -26 -142 -42 -30 -18 -35 -18 -86 -3 -38 11
-66 28 -98 60 -50 51 -64 53 -120 24 -38 -19 -55 -20 -224 -17 -182 3 -184 3
-209 -21 -24 -22 -31 -24 -101 -18 -46 3 -75 2 -75 -4 0 -18 -49 -59 -70 -59
-15 0 -20 7 -20 28 0 15 -3 37 -6 49 -5 19 -10 21 -25 12 -17 -8 -19 -6 -19
21 0 35 0 35 -42 11 -20 -11 -71 -24 -128 -31 -57 -7 -112 -20 -136 -32 l-42
-21 -45 21 c-25 12 -48 26 -51 31 -4 5 -19 12 -35 16 -16 3 -37 15 -47 26 -21
23 -37 24 -54 4 -7 -8 -28 -15 -47 -15 -20 0 -46 -9 -60 -20 -14 -11 -38 -20
-52 -20 -19 0 -41 -14 -71 -45 -58 -59 -79 -59 -137 4 l-45 49 -24 -26 c-24
-27 -24 -27 -40 -7 -8 11 -20 19 -25 17 -5 -1 -14 10 -20 25 l-10 27 -25 -32
c-20 -25 -33 -32 -59 -32 -25 0 -40 -7 -57 -29 -35 -43 -67 -59 -134 -66 -49
-6 -63 -4 -77 10 -13 13 -15 21 -6 36 14 27 5 49 -20 49 -12 0 -18 6 -17 18 1
14 -9 17 -67 20 l-67 3 0 -30 c0 -32 -22 -61 -46 -61 -8 0 -26 11 -40 25 -21
21 -34 25 -85 25 -33 0 -68 -4 -77 -9 -23 -12 -50 0 -95 43 -36 33 -87 49 -87
27 0 -22 -34 -41 -71 -41 -38 0 -39 -1 -45 -41 -5 -29 -13 -44 -30 -51 -33
-15 -54 -3 -54 31 0 57 -29 88 -31 34 -1 -20 -4 -14 -11 20 -6 26 -14 47 -18
47 -4 0 -11 -27 -15 -60 -9 -74 -32 -94 -74 -63 -35 26 -158 38 -185 17 -28
-20 -75 -17 -114 6 -18 11 -35 20 -39 20 -3 0 -3 -25 1 -55 6 -50 4 -56 -18
-71 -21 -13 -23 -19 -14 -39 16 -36 1 -92 -31 -116 -20 -15 -27 -27 -23 -41 3
-11 -4 -32 -17 -48 -27 -38 -27 -50 3 -50 19 0 23 -4 19 -20 -5 -17 0 -20 31
-20 48 0 46 -16 -6 -62 l-43 -36 22 -24 c28 -29 39 -82 25 -111 -18 -38 -20
-79 -6 -120 8 -22 14 -59 14 -83 0 -37 3 -44 20 -44 13 0 20 -7 20 -20 0 -15
7 -20 25 -20 58 0 14 -53 -67 -81 -29 -10 -52 -20 -51 -23 1 -4 5 -23 8 -44 3
-20 14 -68 23 -106 l16 -68 -27 -24 c-32 -27 -36 -64 -7 -71 11 -3 20 -14 20
-24 0 -17 8 -19 64 -19 71 0 87 -11 60 -41 -13 -14 -30 -19 -69 -19 -54 0 -75
-12 -75 -44 0 -11 -10 -30 -21 -43 -18 -18 -20 -25 -10 -37 8 -10 12 -38 9
-76 -3 -57 -2 -60 20 -60 15 0 22 -6 22 -19 0 -13 10 -20 31 -25 30 -6 30 -6
24 -53 -5 -33 -14 -54 -31 -68 -32 -28 -48 -109 -41 -212 6 -77 4 -84 -18
-112 -33 -38 -36 -106 -5 -98 16 4 20 0 20 -19 0 -18 5 -24 21 -24 18 0 20 -4
15 -27 -19 -78 -19 -84 3 -90 11 -3 21 -12 21 -20 0 -8 14 -19 30 -24 17 -6
30 -13 30 -16 0 -16 -25 -44 -56 -62 l-36 -21 26 -30 c20 -24 24 -38 20 -68
-10 -75 -13 -80 -44 -87 -31 -7 -56 -38 -45 -55 3 -5 6 -37 6 -71 1 -49 -4
-66 -20 -82 -18 -19 -19 -22 -5 -49 9 -17 20 -57 25 -91 6 -34 17 -72 25 -84
21 -33 17 -106 -8 -157 l-21 -44 27 -33 c23 -27 27 -39 23 -73 -8 -65 -24
-127 -35 -138 -14 -14 -3 -119 15 -140 24 -28 19 -104 -11 -149 l-26 -39 33
-32 c42 -41 49 -59 41 -110 -5 -28 -13 -43 -30 -50 -31 -14 -30 -26 1 -34 14
-3 24 -12 23 -20 -2 -8 13 -22 32 -31 25 -13 39 -29 47 -55 16 -47 9 -64 -32
-84 -37 -17 -125 -102 -125 -120 0 -7 9 -15 19 -19 37 -11 41 -81 9 -177 -20
-64 -21 -69 -4 -87 17 -19 21 -41 18 -94 -1 -19 -9 -30 -27 -37 -29 -11 -34
-46 -7 -54 28 -9 43 -56 34 -106 -6 -38 -13 -48 -42 -62 -40 -21 -46 -42 -12
-46 15 -2 22 -8 18 -18 -3 -7 3 -18 14 -24 23 -12 27 -62 10 -120 -9 -30 -8
-37 10 -49 27 -18 26 -65 -2 -91 -19 -17 -54 -100 -43 -100 2 0 16 5 30 10 26
10 26 9 20 -20 -7 -33 -7 -34 28 -21 30 12 37 0 37 -63 0 -34 -6 -48 -30 -71
-30 -28 -30 -29 -10 -47 27 -26 25 -48 -10 -96 -17 -23 -30 -44 -30 -47 0 -3
14 -5 32 -5 25 0 29 -3 20 -12 -20 -20 -14 -26 32 -33 l44 -7 7 -52 c4 -28 11
-68 16 -90 9 -33 8 -41 -9 -60 -30 -31 -32 -89 -4 -119 27 -29 28 -49 2 -72
-11 -10 -20 -28 -20 -41 0 -25 -34 -54 -64 -54 -17 0 -16 -2 6 -23 44 -41 58
-70 50 -102 -8 -30 -21 -37 -84 -50 -37 -7 -38 -46 -3 -87 20 -24 25 -40 25
-88 0 -59 -15 -87 -85 -161 -8 -9 -15 -18 -15 -22 0 -14 78 -87 93 -87 9 0 17
-6 17 -13 0 -21 -34 -47 -62 -47 l-25 0 15 -60 c9 -37 20 -60 29 -60 7 0 18
-11 23 -25 6 -15 17 -25 29 -25 26 0 51 -26 51 -55 0 -38 -30 -65 -79 -69 -41
-3 -44 -6 -46 -32 -1 -16 -5 -36 -9 -45 -5 -12 -1 -18 19 -23 18 -5 25 -12 21
-21 -3 -8 0 -15 6 -15 7 0 9 -20 6 -57 -4 -44 -10 -61 -29 -77 -25 -21 -25
-22 -14 -107 9 -74 14 -90 40 -117 51 -54 53 -166 2 -190 -15 -7 -27 -18 -27
-25 0 -7 -3 -22 -6 -33 -4 -17 0 -23 20 -28 16 -4 23 -11 20 -20 -3 -8 3 -16
15 -19 13 -3 21 -13 21 -27 0 -13 9 -37 20 -56 19 -30 20 -36 7 -67 -15 -34
-82 -97 -104 -97 -25 0 -13 -49 22 -86 19 -20 35 -42 35 -49 0 -7 7 -15 14
-18 8 -3 22 -20 31 -38 25 -47 6 -87 -46 -95 -22 -4 -39 -9 -39 -11 0 -3 16
-23 35 -46 20 -23 38 -52 42 -65 7 -28 -18 -58 -64 -77 -28 -12 -33 -19 -33
-46 0 -19 -9 -42 -21 -55 l-21 -22 25 -14 c14 -7 25 -17 24 -22 -2 -7 17 -22
41 -32 2 -1 -6 -19 -16 -40 -11 -22 -23 -51 -26 -66 -6 -25 -4 -28 19 -28 22
0 25 -4 20 -20 -5 -16 -2 -20 18 -20 22 0 26 -6 31 -45 8 -50 0 -71 -34 -88
-44 -23 -46 -41 -11 -85 l33 -40 -21 -84 c-20 -79 -38 -108 -68 -108 -18 0
-16 -6 7 -39 18 -24 20 -33 11 -72 -11 -47 -5 -78 29 -154 24 -52 43 -164 35
-198 -5 -19 -1 -34 14 -53 46 -59 9 -123 -77 -132 -42 -4 -52 -8 -52 -23 0
-12 7 -19 20 -19 13 0 20 -7 20 -20 0 -13 7 -20 19 -20 26 0 37 -18 44 -67 4
-32 1 -46 -12 -57 -22 -20 -45 -20 -61 -1 -17 20 -33 19 -47 -4 -11 -17 -8
-26 22 -61 19 -23 38 -52 41 -65 6 -25 -10 -95 -32 -137 -13 -25 -12 -29 21
-62 19 -20 37 -47 41 -61 6 -26 -12 -110 -28 -132 -7 -8 -1 -13 19 -15 20 -2
27 -8 25 -20 -2 -11 7 -18 28 -23 29 -6 30 -9 30 -59 0 -59 -16 -88 -59 -105
l-29 -13 31 -44 c27 -38 29 -47 19 -69 -6 -14 -27 -33 -47 -42 -40 -19 -42
-24 -16 -47 35 -32 36 -69 2 -133 -16 -32 -33 -73 -36 -90 -6 -31 -5 -33 20
-33 21 0 25 -4 20 -19 -4 -15 0 -20 17 -23 21 -3 23 -9 26 -68 3 -82 -11 -111
-61 -123 -20 -5 -37 -12 -37 -16 0 -12 117 -121 129 -121 6 0 11 -8 11 -18 0
-20 -29 -52 -48 -52 -6 0 5 -24 24 -52 19 -29 34 -56 34 -60 0 -5 6 -8 14 -8
8 0 18 -9 21 -20 8 -26 63 -28 72 -3 10 29 35 53 55 53 24 0 101 -44 146 -82
35 -30 52 -29 52 3 0 36 41 44 153 30 56 -7 106 -13 111 -14 5 -1 13 12 17 30
9 31 58 70 96 73 50 6 61 0 67 -35 4 -22 13 -35 22 -35 9 0 18 -9 21 -20 6
-22 47 -26 138 -11 73 13 112 4 120 -26 4 -16 11 -23 20 -19 10 3 17 -3 21
-19 7 -29 21 -31 50 -10 25 17 67 19 194 10 l95 -8 -3 45 c-5 55 5 63 83 76
33 5 68 12 77 16 10 5 23 1 35 -11 11 -11 27 -22 36 -26 9 -3 17 -13 17 -22 0
-24 29 -18 66 14 29 26 36 28 59 18 14 -7 28 -20 31 -29 9 -28 105 -25 144 4
44 32 210 45 210 16 0 -16 72 -79 107 -94 44 -19 73 -18 139 7 60 23 131 27
164 9 16 -9 25 -5 53 26 33 36 34 37 92 29 41 -5 65 -14 82 -31 31 -31 47 -31
39 0 -14 57 81 67 154 16 16 -11 55 -20 112 -25 55 -4 91 -12 99 -21 18 -22
48 -17 59 11 13 34 63 34 127 -1 47 -25 51 -26 178 -20 72 4 146 7 165 6 37 0
90 -18 90 -30 0 -4 11 -12 25 -18 23 -11 24 -10 19 17 -7 35 8 67 36 74 15 4
34 -6 66 -34 79 -69 112 -74 58 -9 -23 27 -25 35 -16 56 14 28 50 32 109 10
96 -36 131 -40 236 -26 56 7 107 16 112 21 6 4 23 13 39 19 27 10 28 9 24 -15
-3 -14 1 -30 8 -36 11 -9 14 -7 14 9 0 12 4 23 9 26 12 8 21 -29 11 -44 -9
-15 10 -51 22 -44 4 3 8 16 8 30 0 16 8 28 25 36 22 10 30 7 64 -20 l40 -32 8
43 c8 38 11 42 41 45 25 3 41 -4 65 -25 47 -41 93 -59 112 -43 8 7 39 12 69
11 36 0 58 5 66 14 9 11 33 15 80 15 37 0 81 5 98 11 25 8 42 7 81 -6 27 -9
55 -22 61 -30 8 -10 18 -11 36 -4 14 5 48 9 75 9 44 0 51 3 59 25 8 21 16 25
51 25 37 0 48 -6 84 -43 54 -56 73 -64 85 -33 12 33 21 37 91 38 57 1 62 -1
95 -36 27 -29 41 -36 71 -36 30 0 42 7 69 39 19 21 46 41 61 44 35 7 109 -28
116 -54 3 -11 12 -19 20 -19 9 0 19 -9 22 -20 10 -30 42 -25 50 8 13 52 33 64
94 56 31 -4 67 -11 80 -16 21 -7 28 -4 46 18 20 25 25 26 81 22 48 -4 64 -1
85 14 37 27 131 27 192 0 25 -11 55 -18 66 -15 40 10 112 -8 137 -34 21 -23
26 -24 53 -13 16 6 39 9 50 5 12 -3 31 1 46 11 18 12 36 15 66 10 34 -5 52 -1
110 28 39 19 78 33 87 30 33 -11 147 -68 164 -82 16 -13 19 -12 28 12 5 15 17
29 25 32 29 11 235 -25 265 -46 36 -26 36 -26 49 10 6 17 18 30 28 31 39 3 59
-3 75 -22 16 -19 17 -18 48 21 38 47 74 53 123 18 36 -26 152 -44 329 -52
l106 -4 30 47 c39 64 63 69 113 24 l40 -36 38 18 c51 23 155 13 188 -17 17
-16 30 -19 55 -14 22 4 41 1 55 -9 20 -14 22 -13 32 15 9 27 14 30 52 30 29 0
52 -7 74 -25 31 -23 36 -24 95 -14 58 11 63 10 86 -12 24 -22 25 -22 53 -6 42
25 73 21 116 -13 35 -28 39 -29 66 -15 15 8 43 15 62 15 56 0 94 18 106 50 5
16 22 35 38 43 17 9 34 30 42 52 12 34 11 39 -8 59 -12 12 -28 47 -35 76 -12
46 -12 58 0 81 7 15 20 29 27 32 8 3 20 25 26 49 7 23 14 48 17 55 3 6 -4 14
-15 18 -12 3 -21 10 -21 15 0 5 -13 22 -30 38 -17 17 -30 41 -30 54 0 29 54
84 91 93 33 8 29 32 -13 77 -54 57 -57 108 -8 123 29 9 29 104 -1 144 -17 23
-19 35 -12 58 7 22 18 30 51 37 l42 10 -6 50 c-3 28 -19 78 -35 110 -16 32
-29 65 -29 72 0 7 -7 34 -16 59 -19 57 -11 84 28 97 28 10 29 13 23 47 -4 20
-13 46 -21 58 -8 12 -14 37 -14 55 2 95 -1 107 -20 113 -11 4 -20 11 -20 17 0
6 -8 16 -17 23 -24 17 -5 58 37 80 29 15 30 18 30 85 0 63 -2 70 -20 70 -13 0
-20 7 -20 20 0 17 -7 20 -45 20 -86 0 -69 60 25 87 55 17 59 20 62 51 4 28 0
35 -19 43 -13 5 -23 15 -23 24 0 8 -7 15 -16 15 -14 0 -16 11 -12 70 3 56 1
71 -12 75 -8 3 -20 17 -27 31 -10 21 -9 28 8 45 10 10 25 19 33 19 7 0 26 7
42 15 24 12 28 20 27 55 0 32 -8 49 -31 73 -42 45 -75 114 -68 143 7 28 45 41
74 25 17 -9 23 -6 41 24 l21 35 -60 57 c-63 59 -69 75 -49 132 7 21 24 38 49
51 45 23 56 38 41 53 -21 21 -13 78 14 99 31 24 32 42 4 62 -15 10 -24 31 -30
68 -9 57 -5 84 18 110 13 14 12 17 -2 25 -13 7 -17 25 -17 76 0 37 5 73 11 81
8 10 5 15 -14 24 -28 13 -43 57 -28 81 5 9 20 21 33 28 l24 12 -27 12 c-14 6
-24 15 -22 20 3 4 1 10 -5 14 -5 3 -10 20 -10 36 0 21 7 32 24 40 32 15 41 83
13 102 -11 7 -20 29 -24 57 -3 25 -12 57 -19 72 -8 15 -14 36 -14 48 0 13 -9
24 -25 30 -14 5 -25 16 -25 25 0 8 -7 15 -15 15 -38 0 -3 48 63 86 25 14 32
25 32 49 -1 48 -19 116 -41 146 -16 23 -18 37 -13 84 6 53 9 57 50 81 23 14
52 41 63 60 19 31 19 39 8 74 -8 27 -18 40 -29 40 -11 0 -18 8 -18 20 0 15 -7
20 -24 20 -34 0 -39 13 -16 43 27 34 28 97 1 97 -13 0 -21 8 -23 23 -2 16 -9
21 -26 19 -13 -2 -25 3 -28 12 -10 27 14 53 61 65 38 9 49 18 60 44 11 27 11
34 -1 48 -8 8 -14 24 -14 34 0 10 -10 33 -21 52 -37 60 -23 123 27 123 29 0
30 11 4 35 -27 25 -25 44 9 86 35 42 47 133 20 153 -9 6 -28 39 -43 72 l-28
61 33 46 c30 42 31 47 15 62 -20 21 -21 49 0 66 12 10 14 23 9 58 -4 25 -8 53
-10 61 -1 8 -12 16 -23 18 -14 2 -22 11 -22 23 0 10 -7 19 -15 19 -25 0 -17
27 14 49 16 12 33 21 38 21 5 0 21 13 36 28 26 27 27 30 19 98 -5 38 -6 98 -2
134 6 58 4 68 -16 92 -12 15 -25 45 -29 67 -3 21 -15 47 -26 57 -14 12 -19 30
-19 65 0 62 12 91 44 108 l26 14 -23 12 c-12 6 -21 17 -20 23 2 7 -1 12 -6 12
-15 0 -21 42 -9 64 6 12 25 33 42 47 l31 27 -27 25 c-38 35 -37 80 2 131 17
22 30 47 30 56 0 10 9 29 20 43 26 33 25 51 -5 81 -16 16 -25 36 -25 57 0 18
-6 40 -14 48 -25 28 -28 58 -9 76 10 10 23 32 29 49 10 28 8 34 -17 59 -30 29
-29 42 2 87 9 14 20 42 24 63 5 33 3 39 -13 44 -11 3 -22 13 -25 24 -3 12 -14
19 -30 19 -22 0 -27 6 -36 51 -15 67 -7 93 40 123 44 29 48 42 19 51 -11 3
-20 12 -20 20 0 7 -7 15 -15 19 -28 11 -9 82 29 108 7 4 0 18 -16 35 -49 51
-59 123 -22 154 12 10 11 16 -7 46 -20 32 -20 35 -5 59 10 13 30 27 46 31 39
7 38 20 0 28 -24 5 -28 10 -20 20 8 10 5 14 -15 19 -31 8 -32 23 -2 67 15 23
35 37 59 43 l36 9 7 69 c4 37 11 71 16 74 5 3 9 16 9 30 0 17 -5 24 -20 24
-13 0 -20 7 -20 20 0 13 -7 20 -20 20 -13 0 -20 7 -20 18 0 23 19 42 43 42 15
0 18 5 13 23 -4 12 -12 63 -17 112 -5 50 -14 98 -19 107 -6 10 -10 24 -10 32
0 7 -8 13 -17 12 -12 0 -19 7 -21 22 -2 15 -9 22 -20 20 -24 -4 -17 48 13 92
l24 35 -18 53 c-10 29 -33 68 -50 86 -26 27 -35 49 -50 120 -15 74 -15 90 -4
106 8 11 21 20 29 20 10 0 13 6 10 18 -17 57 -16 69 4 95 l21 27 -26 10 c-14
5 -23 14 -20 20 3 5 -5 15 -19 22 -41 18 -36 71 10 115 l36 34 -25 23 c-77 72
-75 218 3 203 20 -4 41 4 84 33 l58 38 -32 7 c-22 5 -30 11 -26 21 3 8 -1 17
-9 20 -32 13 -2 84 36 84 23 0 23 -6 -2 60 -23 59 -25 73 -14 107 6 17 3 22
-17 25 -15 2 -22 9 -20 21 2 9 -2 17 -8 17 -5 0 -10 11 -10 25 0 18 9 29 38
44 l37 19 -25 10 c-15 6 -31 24 -40 46 -7 20 -19 36 -26 36 -7 0 -19 14 -28
31 -14 28 -14 31 5 50 10 10 23 19 28 19 5 0 14 14 20 31 6 17 20 33 31 36 27
7 27 49 0 58 -11 3 -20 13 -20 21 0 8 -4 14 -10 14 -15 0 -11 52 5 74 8 11 12
29 9 42 -6 24 15 72 40 93 23 19 20 31 -10 31 -21 0 -24 4 -19 20 5 16 2 20
-14 20 -26 0 -26 10 -1 42 22 29 18 38 -18 38 -19 0 -22 3 -13 13 13 16 5 27
-20 27 -22 0 -35 51 -20 79 6 11 20 23 31 26 24 7 24 8 6 60 -8 22 -17 72 -21
111 -8 79 -3 87 55 98 60 11 65 19 31 55 -17 18 -31 37 -31 42 0 5 -6 9 -14 9
-8 0 -17 8 -20 18 -8 24 -69 41 -114 31 -66 -15 -68 20 -3 49 l36 17 -55 5
-55 6 35 16 35 16 -98 1 c-86 1 -104 -2 -145 -24 -66 -35 -101 -33 -145 10
-20 19 -46 35 -59 35 -13 0 -42 11 -65 24 l-42 24 -7 -21 c-13 -45 -64 -78
-64 -42 0 8 -9 15 -20 15 -13 0 -20 7 -20 20 0 13 -7 20 -20 20 -34 0 -90 -28
-90 -45 0 -24 -36 -31 -155 -29 -94 1 -119 5 -175 29 -36 14 -72 35 -82 46 -9
10 -18 19 -21 19 -14 0 -51 -79 -59 -124 -7 -46 -27 -76 -50 -76 -5 0 -40 29
-78 65 -77 72 -108 85 -145 61 -40 -26 -77 -20 -118 19 -43 41 -48 42 -72 15
-10 -11 -28 -19 -39 -18 -15 2 -20 -2 -18 -14 8 -49 -43 -80 -84 -53 -15 10
-35 14 -49 11 -14 -4 -32 1 -48 14 -14 12 -40 20 -61 20 -20 0 -36 4 -36 9 0
5 -9 11 -20 14 -11 3 -20 12 -20 21 0 31 -52 15 -101 -31 -14 -13 -35 -24 -45
-23 -74 4 -95 2 -142 -13 l-54 -16 -48 45 c-49 45 -49 45 -75 28 -22 -14 -31
-15 -46 -6 -28 18 -35 15 -78 -30 l-40 -41 -82 16 c-44 9 -89 23 -100 33 -16
14 -23 15 -49 4 -25 -10 -34 -10 -55 4 -14 10 -34 15 -43 12 -9 -3 -30 2 -47
12 l-29 18 -16 -30 c-14 -28 -19 -31 -61 -30 -36 0 -62 10 -117 42 -39 23 -73
42 -76 42 -3 0 -13 -11 -22 -25z"/>
</g>
</svg>
