<?xml version="1.0" encoding="UTF-8" standalone="no"?>
<!-- Created with Inkscape (http://www.inkscape.org/) -->

<svg
   width="113.07576mm"
   height="114.08712mm"
   viewBox="0 0 113.07576 114.08712"
   version="1.1"
   id="svg1"
   inkscape:version="1.3.2 (091e20e, 2023-11-25, custom)"
   sodipodi:docname="x_o.svg"
   inkscape:export-filename="x.svg"
   inkscape:export-xdpi="96"
   inkscape:export-ydpi="96"
   xmlns:inkscape="http://www.inkscape.org/namespaces/inkscape"
   xmlns:sodipodi="http://sodipodi.sourceforge.net/DTD/sodipodi-0.dtd"
   xmlns="http://www.w3.org/2000/svg"
   xmlns:svg="http://www.w3.org/2000/svg">
  <sodipodi:namedview
     id="namedview1"
     pagecolor="#ffffff"
     bordercolor="#000000"
     borderopacity="0.25"
     inkscape:showpageshadow="2"
     inkscape:pageopacity="0.0"
     inkscape:pagecheckerboard="0"
     inkscape:deskcolor="#d1d1d1"
     inkscape:document-units="mm"
     inkscape:zoom="1.0449705"
     inkscape:cx="397.14038"
     inkscape:cy="561.25984"
     inkscape:window-width="3440"
     inkscape:window-height="1369"
     inkscape:window-x="-8"
     inkscape:window-y="1072"
     inkscape:window-maximized="1"
     inkscape:current-layer="layer2" />
  <defs
     id="defs1">
    <inkscape:path-effect
       effect="powerstroke"
       id="path-effect19"
       is_visible="true"
       lpeversion="1.3"
       scale_width="1"
       interpolator_type="CentripetalCatmullRom"
       interpolator_beta="0.75"
       start_linecap_type="zerowidth"
       end_linecap_type="zerowidth"
       offset_points="4.9840504,3.7979539"
       linejoin_type="spiro"
       miter_limit="4"
       not_jump="true"
       sort_points="true"
       message="&lt;b&gt;Ctrl + click&lt;/b&gt; on existing node and move it" />
    <inkscape:path-effect
       effect="simplify"
       id="path-effect18"
       is_visible="true"
       lpeversion="1.3"
       threshold="0.012"
       steps="1"
       smooth_angles="0"
       helper_size="0"
       simplify_individual_paths="false"
       simplify_just_coalesce="false"
       step="1" />
    <inkscape:path-effect
       effect="powerstroke"
       id="path-effect13"
       is_visible="true"
       lpeversion="1.3"
       scale_width="1"
       interpolator_type="CentripetalCatmullRom"
       interpolator_beta="0.75"
       start_linecap_type="zerowidth"
       end_linecap_type="zerowidth"
       offset_points="6.0388918,3.7979539"
       linejoin_type="spiro"
       miter_limit="4"
       not_jump="true"
       sort_points="true"
       message="&lt;b&gt;Ctrl + click&lt;/b&gt; on existing node and move it" />
    <inkscape:path-effect
       effect="simplify"
       id="path-effect12"
       is_visible="true"
       lpeversion="1.3"
       threshold="0.012"
       steps="1"
       smooth_angles="0"
       helper_size="0"
       simplify_individual_paths="false"
       simplify_just_coalesce="false"
       step="1" />
  </defs>
  <g
     inkscape:label="x1"
     inkscape:groupmode="layer"
     id="layer1"
     transform="translate(-60.364847,-45.689803)">
    <path
       d="m 38.485934,38.992327 c 0.01431,0.193265 -0.0367,0.497192 -0.210102,0.804713 -0.123782,0.233873 -0.299704,0.449561 -0.515684,0.659218 -0.163922,0.17447 -0.359721,0.360792 -0.512805,0.571603 -0.113986,0.217869 -0.208896,0.536786 -0.165695,0.989535 -0.02361,0.297401 0.01425,0.678544 0.193074,1.111468 l -0.0102,-0.01214 c 0.04819,0.262955 0.103444,0.484597 0.130281,0.646457 l -0.02322,-0.02296 c 0.02939,0.03443 0.05884,0.06878 0.08833,0.103065 0.687433,0.799108 1.375723,1.532151 2.145401,2.355574 0.495179,0.548746 1.030817,1.138579 1.529834,1.717524 0.321337,0.388929 0.647021,0.791785 0.962684,1.204174 0.08707,0.137698 0.235633,0.367179 0.379323,0.585905 0.170362,0.250266 0.469795,0.695306 0.713962,1.046 0.261891,0.375826 0.58422,0.825835 0.950192,1.284687 0.274242,0.344717 0.603164,0.73124 0.987672,1.121352 0.289244,0.292686 0.632355,0.609353 1.031772,0.918734 0.323753,0.248659 0.635565,0.445228 0.919024,0.60364 0.3715,0.212632 0.734618,0.380676 0.87272,0.443183 0.119276,0.04988 0.188597,0.07523 0.210343,0.07027 0.02238,-0.0042 0.02952,-0.01886 0.02575,-0.04621 0.05561,0.02179 0.156129,0.08955 0.30472,0.217336 0.161837,0.143067 0.338835,0.31719 0.536898,0.527297 0.250196,0.276187 0.504386,0.577645 0.769875,0.908153 0.337311,0.432557 0.672507,0.887372 1.012464,1.366679 0.437287,0.631566 0.867584,1.28413 1.296966,1.958618 0.496134,0.788936 0.98271,1.594997 1.462121,2.417666 0.449071,0.767713 0.888965,1.544326 1.317083,2.329321 0.307884,0.546356 0.608149,1.092092 0.897326,1.638638 0.198668,0.352747 0.388285,0.695755 0.567833,1.034753 0.127746,0.214153 0.253424,0.447447 0.404736,0.734651 0.924179,2.238817 1.799742,4.504281 2.697547,6.82379 0.87899,2.26978 1.776715,4.584571 2.730349,6.882923 0.768235,1.832915 1.577969,3.669049 2.452926,5.487498 0.438729,0.868575 0.892716,1.732249 1.364033,2.588788 1.291177,2.494622 2.645064,4.946581 4.025388,7.36249 1.754879,3.092541 3.566958,6.151061 5.353943,9.172211 1.717885,2.90084 3.413195,5.7678 5.054577,8.66314 0.364313,0.58012 0.72289,1.15261 1.076437,1.72577 0.830289,1.46168 1.623777,2.95776 2.415179,4.4747 0.975155,1.88989 1.949112,3.81691 2.972394,5.72172 0.75923,1.38956 1.546206,2.76966 2.385168,4.12483 0.555287,0.86888 1.129871,1.72309 1.72944,2.55862 1.07014,1.55072 2.192248,3.04806 3.347529,4.49374 1.274231,1.60044 2.593511,3.14344 3.940259,4.63239 1.482447,1.64422 3.003381,3.22834 4.546021,4.75613 1.05574,1.02557 2.1197,2.02346 3.18693,2.99443 0.89442,0.80322 1.76728,1.59919 2.62253,2.40154 0.57097,0.51459 1.12938,1.02835 1.67601,1.54305 0.40285,0.36177 0.8037,0.72855 1.19712,1.0895 0.42822,0.39595 0.84704,0.78311 1.27528,1.16803 0.43336,0.38908 0.86541,0.76554 1.29408,1.12926 0.71869,0.64719 1.44343,1.27167 2.14855,1.86795 0.82437,0.70384 1.64825,1.39098 2.4448,2.0491 1.12325,0.94703 2.24166,1.876 3.3154,2.76282 0.72671,0.57903 1.40713,1.12059 2.09296,1.66327 2.2885,1.92249 4.57727,3.73061 6.77582,5.40925 2.72503,2.08768 5.45317,4.0831 7.98003,5.9036 3.1124,2.25439 7.47057,5.34202 10.58296,7.59641 0.81415,0.5542 1.55203,1.0625 2.22268,1.53116 -0.63039,-0.49449 -1.36118,-1.06982 -2.12144,-1.66923 -3.26007,-2.42673 -6.77193,-4.99177 -10.46346,-7.75794 -2.48779,-1.87404 -5.16421,-3.92381 -7.83621,-6.06883 -2.14942,-1.73148 -4.37972,-3.59207 -6.60355,-5.5655 -0.63039,-0.59593 -1.2655,-1.20139 -1.93291,-1.83974 -1.02137,-0.94459 -2.08095,-1.93122 -3.14428,-2.93701 -0.74061,-0.71523 -1.50177,-1.45809 -2.26045,-2.21645 -0.64338,-0.64989 -1.29629,-1.32251 -1.93769,-2.01322 -0.35932,-0.41122 -0.71867,-0.83406 -1.07655,-1.26839 -0.3554,-0.43007 -0.70301,-0.86311 -1.06803,-1.31815 -0.33232,-0.41742 -0.67784,-0.85038 -1.02772,-1.28047 -0.49927,-0.58662 -1.0106,-1.17349 -1.53423,-1.76206 -0.81443,-0.88048 -1.64426,-1.75234 -2.49049,-2.62787 -0.9868,-1.00975 -1.9665,-2.04304 -2.93471,-3.10039 -1.4438,-1.54589 -2.85844,-3.13923 -4.22892,-4.78317 -1.240317,-1.49317 -2.445251,-3.02909 -3.599601,-4.61053 -1.041419,-1.43279 -2.041656,-2.90317 -2.985591,-4.41319 -0.486164,-0.81277 -0.951298,-1.6457 -1.401523,-2.49791 -0.716878,-1.30788 -1.392877,-2.65199 -2.054786,-4.03032 -0.927843,-1.89639 -1.795323,-3.78772 -2.720961,-5.75977 -0.726214,-1.56519 -1.479403,-3.16024 -2.283983,-4.74158 -0.296732,-0.63424 -0.59605,-1.26172 -0.894911,-1.88522 -1.601885,-2.98509 -3.254678,-5.93278 -4.903895,-8.86869 -1.727458,-3.07138 -3.44652,-6.121675 -5.106036,-9.197926 -1.288472,-2.405772 -2.536218,-4.819036 -3.715621,-7.256071 -0.372572,-0.824987 -0.73001,-1.656745 -1.075377,-2.49595 -0.753113,-1.727145 -1.454038,-3.487928 -2.127676,-5.27499 C 67.279286,77.375965 66.473027,75.106694 65.655742,72.804609 64.828774,70.476525 63.990384,68.114426 63.09453,65.764578 63.017839,65.482561 62.924186,65.148426 62.809931,64.799114 62.653047,64.345938 62.486953,63.899856 62.322941,63.4725 62.054337,62.820145 61.777476,62.18144 61.497983,61.556868 61.086712,60.669565 60.662885,59.795523 60.228872,58.934202 59.762463,58.012953 59.281498,57.100889 58.782663,56.198825 58.359073,55.424434 57.919983,54.653528 57.4593,53.889536 57.1134,53.303719 56.750959,52.716133 56.36581,52.132321 56.075139,51.68125 55.763906,51.222416 55.425977,50.764809 55.173023,50.41317 54.891563,50.04572 54.575431,49.677407 54.312798,49.366861 53.989903,49.014646 53.599248,48.66486 c -0.2594,-0.240407 -0.518056,-0.448583 -0.767971,-0.63005 -0.290492,-0.208235 -0.567701,-0.380832 -0.77181,-0.505198 -0.312992,-0.185182 -0.447975,-0.262995 -0.5022,-0.310931 -0.02375,-0.02554 -0.0082,-0.02836 0.04018,0.0021 -0.04358,-0.04378 -0.101689,-0.0989 -0.200363,-0.202274 C 51.271356,46.887442 51.13181,46.729123 50.965495,46.528439 50.743069,46.258362 50.517759,45.96438 50.255651,45.61968 49.997535,45.28087 49.706793,44.896312 49.396934,44.510857 49.149156,44.210692 48.877793,43.897322 48.576728,43.584666 48.080804,43.048412 47.591267,42.56834 47.12788,42.14268 c -0.694915,-0.66035 -1.382947,-1.253162 -1.985073,-1.750872 -0.779899,-0.666814 -1.75588,-1.464354 -2.332211,-1.940002 0.0019,0.0016 -0.09157,-0.07561 -0.08969,-0.07405 -0.0013,-0.0011 -0.0026,-0.0022 -0.0037,-0.0036 -0.0011,-0.0013 -0.0019,-0.0029 -0.0025,-0.0045 -0.0011,-0.0033 -9.92e-4,-0.0068 -0.0017,-0.01016 -3.42e-4,-0.0017 -9.21e-4,-0.0033 -0.0019,-0.0047 -9.98e-4,-0.0014 -0.0024,-0.0025 -0.0041,-0.003 -0.0016,-5.03e-4 -0.0035,-3.79e-4 -0.0051,2.39e-4 -0.0016,6.18e-4 -0.003,0.0017 -0.0043,0.0028 -0.07568,0.06232 -0.115311,0.184024 -0.15189,0.346314 l -0.0102,-0.01214 c -0.02525,0.195326 -0.154219,0.308734 -0.322147,0.361205 -0.201206,0.03593 -0.488961,-0.08138 -0.812953,-0.238974 -0.343232,-0.09769 -0.655838,-0.196261 -1.0231,-0.263747 -0.397282,-0.03845 -0.751255,-0.01524 -1.061831,0.05559 -0.396735,0.106679 -0.671285,0.287678 -0.829645,0.389282 z"
       id="path-1"
       inkscape:path-effect="#path-effect12;#path-effect13"
       inkscape:original-d="m 38.485934,38.992327 c 0.831059,0.415946 0.92239,1.428785 1.519181,2.025576 1.754162,1.754162 3.635315,3.355011 5.317136,5.317135 1.122971,1.310134 2.180853,3.213225 3.544757,4.304348 0.637678,0.510143 1.341793,0.696166 2.025575,1.265985 2.730362,2.275301 7.532998,11.363184 8.861893,14.685422 2.936659,7.341649 5.304717,14.913783 8.861892,22.028133 4.570306,9.140612 10.063517,17.858424 14.938619,26.838874 3.088268,5.68891 5.55714,11.79575 9.11509,17.21739 4.025968,6.13481 9.174233,11.89399 14.432223,16.9642 7.77735,7.49958 4.06406,5.00558 16.9642,16.2046 8.67953,7.53498 18.3631,14.17433 27.59846,21.01535"
       style="fill:#000000;fill-rule:nonzero;stroke:none;stroke-width:5;stroke-linejoin:round;stroke-miterlimit:5.6"
       transform="matrix(0.98675153,0,0,0.76822259,23.784979,16.22735)" />
    <path
       d="m 143.56266,45.322251 c -0.27707,0.393777 -0.7509,0.853523 -1.36468,1.341067 -0.45839,0.394534 -0.96377,0.7805 -1.54451,1.208984 -0.49757,0.404122 -1.03688,0.827128 -1.60996,1.301201 -0.58802,0.581282 -1.28654,1.276135 -1.96429,2.029484 -0.5378,0.562029 -1.11233,1.219997 -1.66139,1.977504 -0.009,0.0118 -0.0171,0.02365 -0.0257,0.03554 -0.25123,0.252819 -0.51277,0.561731 -0.77435,0.926626 -0.64198,1.149389 -1.37996,2.356588 -2.23505,3.607936 -0.81772,1.201601 -1.7354,2.429979 -2.76562,3.667081 -0.98596,1.185325 -2.07,2.371447 -3.25853,3.53561 -1.08681,1.064047 -2.25972,2.108652 -3.52041,3.109187 -0.8738,0.692735 -1.79455,1.370302 -2.76177,2.019447 -0.72574,0.487675 -1.50707,0.960192 -2.34989,1.426305 -0.89093,0.49144 -1.82867,0.963347 -2.82953,1.436459 -1.17434,0.551372 -2.37824,1.076751 -3.66975,1.630785 -1.28418,0.549637 -2.72708,1.156996 -4.10707,1.769722 -0.6836,0.316602 -1.3843,0.650597 -2.09044,1.003512 -1.74084,0.823815 -3.46071,1.696736 -5.171342,2.603191 -2.097319,1.103084 -4.16362,2.246445 -6.22849,3.406049 -1.099752,0.634707 -2.190235,1.270059 -3.293009,1.911893 -3.603188,2.005049 -7.065795,4.313185 -10.330256,6.90953 -2.709273,2.162291 -5.281855,4.524382 -7.680492,7.073853 -2.171567,2.312875 -4.199074,4.778935 -6.053271,7.383855 -1.672124,2.35528 -3.20128,4.82227 -4.566807,7.3856 -0.672726,1.30671 -1.302582,2.63749 -1.887253,3.98961 -0.849891,1.917 -1.617314,3.86159 -2.318221,5.81878 -0.765188,2.12492 -1.452543,4.2658 -2.085421,6.4069 -0.730928,2.44942 -1.392955,4.90666 -2.020176,7.34828 -1.042053,3.94123 -1.970461,7.74546 -3.012509,11.68667 -0.147271,0.71006 -0.295012,1.41455 -0.445649,2.11597 -0.117072,0.58322 -0.241349,1.17105 -0.368168,1.76299 -0.14371,0.58753 -0.53153,2.14898 -0.675394,2.73702 -0.328081,1.25377 -0.651557,2.50301 -0.960806,3.75905 -0.188804,0.84091 -0.370214,1.67938 -0.539018,2.52063 -0.111534,0.62761 -0.21591,1.254 -0.308162,1.88297 -0.02056,0.32252 -0.03783,0.64294 -0.0506,0.96298 0.0041,0.24375 0.03158,0.45369 0.06004,0.61959 0.01413,0.29631 0.03544,0.58174 0.05754,0.85106 3.13e-4,0.4851 0.0052,0.96901 0.0104,1.43145 -0.03269,0.87945 -0.06066,1.67829 -0.09415,2.52182 -0.05694,1.08395 -0.117186,2.12651 -0.190286,3.15922 -0.03612,0.74414 -0.07772,1.45873 -0.130776,2.16128 -0.02525,0.53254 -0.05627,1.03946 -0.09861,1.53549 -0.01741,0.37941 -0.04074,0.73562 -0.07575,1.08222 -0.02159,0.30766 -0.0498,0.58731 -0.09668,0.85749 -0.01247,0.18473 -0.03175,0.34666 -0.07068,0.5001 -0.0095,0.11191 -0.02847,0.20611 -0.07068,0.28878 0.08738,-0.0459 0.162381,-0.10293 0.261986,-0.18557 0.116535,-0.13565 0.217147,-0.27977 0.328423,-0.44846 0.136813,-0.26501 0.257157,-0.53771 0.381566,-0.83681 0.129484,-0.34305 0.250054,-0.69377 0.372185,-1.06734 0.140639,-0.49547 0.272206,-1.00007 0.403589,-1.52923 0.153837,-0.70386 0.297944,-1.41793 0.440946,-2.15983 0.175637,-1.03511 0.339203,-2.07754 0.503247,-3.15729 0.08319,-0.50429 0.323234,-1.99116 0.406431,-2.49548 0.09674,-0.45269 0.196369,-0.91605 0.299744,-1.37599 0.07978,-0.2533 0.160798,-0.50398 0.246506,-0.74882 0.07319,-0.15133 0.142027,-0.27513 0.214754,-0.36482 0.106257,-0.26165 0.218816,-0.53255 0.33598,-0.80797 0.182,-0.56055 0.376587,-1.12406 0.581247,-1.6979 0.257725,-0.77789 0.52877,-1.55833 0.810242,-2.35035 0.397914,-1.19781 0.81057,-2.39397 1.234013,-3.61304 0.316374,-0.87056 0.644876,-1.76981 0.964918,-2.65947 0.223241,-0.56984 0.448656,-1.15153 0.669131,-1.73999 0.250128,-0.69505 0.495192,-1.38845 0.73803,-2.08308 1.080907,-3.72291 2.207342,-7.8921 3.288139,-11.61462 0.707091,-2.37825 1.437015,-4.73349 2.225146,-7.05938 0.693413,-2.02829 1.428784,-4.02725 2.227567,-5.9893 0.738301,-1.80403 1.528277,-3.57175 2.383362,-5.29479 0.603227,-1.18605 1.243574,-2.34836 1.91902,-3.48584 1.299308,-2.26832 2.742014,-4.4462 4.308957,-6.52043 1.731318,-2.29876 3.614764,-4.47031 5.623686,-6.50226 2.214051,-2.24478 4.580458,-4.319204 7.065226,-6.212533 2.985834,-2.284123 6.143971,-4.306422 9.421377,-6.054396 1.168537,-0.596178 2.21083,-1.130898 3.379346,-1.727065 2.076116,-1.090297 4.100218,-2.139255 6.132688,-3.141759 1.66035,-0.812161 3.29646,-1.579283 4.93016,-2.294498 0.64836,-0.265665 1.30116,-0.522404 1.95512,-0.774503 1.33459,-0.54081 2.69638,-1.065325 4.06777,-1.607653 1.33264,-0.525681 2.66702,-1.065122 3.99773,-1.652199 1.14311,-0.501308 2.27233,-1.033701 3.38201,-1.617518 1.053,-0.552897 2.07861,-1.147669 3.06904,-1.798405 1.19602,-0.788057 2.32044,-1.610788 3.37539,-2.452464 1.52274,-1.214133 2.92536,-2.48241 4.21069,-3.773737 1.40612,-1.412576 2.67646,-2.856828 3.81818,-4.305199 1.19134,-1.513275 2.23841,-3.026736 3.1533,-4.517995 0.9514,-1.556814 1.74873,-3.075023 2.4113,-4.534503 0.0719,-0.302683 0.133,-0.594369 0.17513,-0.873078 9e-5,-3.03e-4 0.0114,-0.03136 0.0116,-0.03175 0.25141,-0.687627 0.51426,-1.391843 0.76466,-2.107729 0.36523,-0.946373 0.70365,-1.869485 0.99163,-2.823214 0.18323,-0.838035 0.29896,-1.632786 0.35194,-2.397245 0.0247,-0.844592 -0.0335,-1.590102 -0.13094,-2.249186 -0.15707,-0.850404 -0.36865,-1.500401 -0.47453,-1.966081 z"
       id="path-1-4"
       inkscape:path-effect="#path-effect18;#path-effect19"
       inkscape:original-d="m 143.56266,45.322251 c -0.79962,4.049653 -3.55386,7.107722 -5.31714,10.634271 -3.46964,6.939294 -9.11713,13.336399 -15.69821,17.723785 -4.74349,3.16233 -10.51911,4.988575 -15.69821,7.342711 -4.98977,2.268081 -9.880074,4.974812 -14.685417,7.595908 -12.684021,6.918557 -23.210811,17.546754 -29.370844,30.636824 -4.885037,10.38071 -7.247656,21.69544 -10.381074,32.66241 -1.008271,3.52894 -3.013184,9.58278 -3.797954,13.41944 -0.336467,1.64495 -1.072602,13.47925 -2.278773,14.68542"
       style="fill:#000000;fill-rule:nonzero;stroke:none;stroke-width:5;stroke-linejoin:round;stroke-miterlimit:5.6"
       transform="matrix(0.98675153,0,0,0.76822259,23.784979,16.22735)" />
  </g>
</svg>
