<?xml version="1.0" encoding="UTF-8" standalone="no"?>
<!-- Created with Inkscape (http://www.inkscape.org/) -->

<svg
   width="15.404805mm"
   height="215.4706mm"
   viewBox="0 0 15.404805 215.4706"
   version="1.1"
   id="svg1"
   xmlns:inkscape="http://www.inkscape.org/namespaces/inkscape"
   xmlns:sodipodi="http://sodipodi.sourceforge.net/DTD/sodipodi-0.dtd"
   xmlns="http://www.w3.org/2000/svg"
   xmlns:svg="http://www.w3.org/2000/svg">
  <sodipodi:namedview
     id="namedview1"
     pagecolor="#ffffff"
     bordercolor="#000000"
     borderopacity="0.25"
     inkscape:showpageshadow="2"
     inkscape:pageopacity="0.0"
     inkscape:pagecheckerboard="0"
     inkscape:deskcolor="#d1d1d1"
     inkscape:document-units="mm" />
  <defs
     id="defs1">
    <inkscape:path-effect
       effect="powerstroke"
       id="path-effect6"
       is_visible="true"
       lpeversion="1.3"
       scale_width="1"
       interpolator_type="CentripetalCatmullRom"
       interpolator_beta="0.75"
       start_linecap_type="zerowidth"
       end_linecap_type="zerowidth"
       offset_points="5.0366753,3.7979539"
       linejoin_type="spiro"
       miter_limit="4"
       not_jump="true"
       sort_points="true"
       message="&lt;b&gt;Ctrl + click&lt;/b&gt; on existing node and move it" />
    <inkscape:path-effect
       effect="simplify"
       id="path-effect5"
       is_visible="true"
       lpeversion="1.3"
       threshold="0.012"
       steps="1"
       smooth_angles="0"
       helper_size="0"
       simplify_individual_paths="false"
       simplify_just_coalesce="false"
       step="1" />
  </defs>
  <g
     inkscape:label="Layer 1"
     inkscape:groupmode="layer"
     id="layer1"
     transform="translate(-29.877238,-33.92839)">
    <path
       d="m 34.68798,33.928389 c 0.58939,3.635675 1.223412,8.648541 1.746116,14.801488 0.415234,4.686836 0.755224,9.882065 0.991572,15.668474 0.228584,5.199259 0.364012,10.670237 0.413435,16.554225 0.07091,5.816634 0.05114,11.779409 -0.03043,18.094064 -0.105474,3.83268 -0.224564,8.0461 -0.324738,12.10681 4e-6,-2.7e-4 -0.01081,0.43351 -0.0108,0.43334 -0.0845,3.442 -0.14603,7.2126 -0.196201,11.37918 -0.0439,3.04096 -0.07392,6.15016 -0.106214,9.58922 -0.02572,2.63713 -0.05157,5.60953 -0.08938,8.48646 -0.03588,2.72407 -0.08579,5.57768 -0.168149,8.47259 -0.04875,1.99691 -0.110788,4.04318 -0.189547,6.14062 -0.109325,2.60443 -0.245837,5.23885 -0.402738,7.95302 -0.152818,2.64054 -0.319689,5.28334 -0.495668,8.0083 -0.09403,1.40637 -0.512725,7.5339 -0.606778,8.94057 0.189806,-2.60537 -1.017466,14.05437 -0.827683,11.44926 -0.152047,2.46658 -0.300243,4.94015 -0.446963,7.42304 -0.206512,3.13353 -0.428473,6.26787 -0.671241,9.40124 -0.165068,2.37566 -0.341143,4.74551 -0.526825,7.10953 -0.244524,2.89384 -0.504503,5.7843 -0.76715,8.6506 -0.246422,2.75328 -0.478809,5.31179 -0.725234,8.06509 -0.03255,0.9822 -0.06348,1.95091 -0.09282,2.90921 0.01169,0.63895 0.03758,1.26912 0.0649,1.86566 0.0037,0.90901 0.01195,1.71224 0.0078,2.56545 -0.01422,0.96874 -0.04351,1.8856 -0.105936,2.78521 -0.03065,0.74417 -0.08301,1.44842 -0.165082,2.12811 -0.06661,0.65154 -0.158687,1.25823 -0.280659,1.83192 -0.118507,0.59907 -0.265641,1.13787 -0.43952,1.62711 -0.110142,0.40678 -0.236454,0.75084 -0.36484,1.0308 0.209979,-0.22721 0.456995,-0.49945 0.734368,-0.83918 0.309595,-0.44282 0.615145,-0.94019 0.919067,-1.51295 0.284153,-0.55385 0.550356,-1.14767 0.806581,-1.79682 0.255722,-0.68295 0.487264,-1.39456 0.706547,-2.14996 0.240508,-0.92089 0.44823,-1.85707 0.647469,-2.83472 0.181583,-0.84959 0.343706,-1.6691 0.520834,-2.54235 0.143099,-0.57803 0.289964,-1.16263 0.447055,-1.73912 -0.10141,0.47863 0.703592,-3.3191 0.602427,-2.84251 -3.111385,20.3069 4.335677,-28.31492 1.224288,-8.00798 0.426209,-2.85244 0.849888,-5.73693 1.256118,-8.6317 0.345928,-2.36178 0.680175,-4.73338 1.000437,-7.11294 0.39829,-3.1435 0.772142,-6.2884 1.126293,-9.43214 0.07401,-0.62451 0.797122,-6.75968 0.870983,-7.38254 -0.6234,5.79574 1.847021,-17.20944 1.223584,-11.41329 0.334045,-3.00958 0.658991,-5.97464 0.971253,-8.93179 0.292959,-2.71993 0.569983,-5.39177 0.823613,-8.05051 0.261386,-2.73899 0.49293,-5.42285 0.685977,-8.07938 0.165336,-2.14077 0.301004,-4.23438 0.408908,-6.27646 0.145657,-2.9662 0.241839,-5.86567 0.305823,-8.63421 0.06873,-2.97352 0.102748,-5.86506 0.115603,-8.5749 0.01679,-3.3965 0.0047,-6.64921 -0.02643,-9.63197 -0.03384,-4.14121 -0.09566,-7.98651 -0.178996,-11.39444 -1.3e-5,-5.2e-4 -0.01076,-0.43305 -0.01077,-0.43357 -0.102432,-4.18703 -0.275019,-8.25729 -0.513517,-12.21841 C 44.253958,92.576725 43.839229,86.512036 43.292906,80.663642 42.717373,74.741519 42.01863,69.216721 41.221327,64.023465 40.315374,58.240265 39.31588,53.065816 38.305649,48.443239 36.956117,42.371477 35.641307,37.485984 34.68798,33.928389 Z"
       id="path-1-4"
       inkscape:path-effect="#path-effect5;#path-effect6"
       inkscape:original-d="m 34.68798,33.928389 c 5.462092,25.469877 6.58312,51.245587 6.58312,77.225061 0,44.74209 -0.178499,41.27163 -4.304348,87.85934 -1.291768,14.58622 -2.392419,22.94607 -4.051151,36.71355 -0.502784,4.17311 -0.62272,10.04917 -3.038363,13.67264"
       style="fill:#000000;fill-rule:nonzero;stroke:none;stroke-width:5;stroke-linejoin:round;stroke-miterlimit:5.6" />
  </g>
</svg>
